<svg width="394" height="76" viewBox="0 0 394 76" fill="none" xmlns="http://www.w3.org/2000/svg">
<rect x="1.1875" width="76" height="76" fill="black"/>
<rect y="58.9871" width="50.0201" height="1.72582" rx="0.862912" fill="white"/>
<rect x="62.2751" y="58.9871" width="15.5062" height="1.72582" rx="0.862912" fill="white"/>
<rect width="13.6744" height="1.7497" rx="0.874851" transform="matrix(0.204181 -0.978933 0.980071 0.198649 48.2107 60.2926)" fill="white"/>
<path d="M56.8588 68.4788C56.3599 68.8887 55.5998 68.6289 55.4531 67.9985L50.8903 48.3833C50.7788 47.9043 51.0873 47.4308 51.5706 47.3389C52.031 47.2514 52.4803 47.5439 52.5865 48.0002L57.1512 67.6149C57.2259 67.9358 57.1127 68.2702 56.8588 68.4788Z" fill="white"/>
<path d="M55.8247 68.1687C55.7121 67.9745 55.6912 67.7404 55.7673 67.5282L60.6425 53.9445C60.7961 53.5163 61.266 53.2878 61.6976 53.4313C62.1411 53.5788 62.373 54.0613 62.2113 54.4999L57.218 68.0418C56.9919 68.6549 56.1509 68.7315 55.8247 68.1687Z" fill="white"/>
<path d="M63.4896 60.3783C63.1099 60.7526 62.464 60.5854 62.3103 60.073L60.7322 54.8118C60.5842 54.3182 60.9203 53.8145 61.4334 53.7609C61.844 53.7181 62.2254 53.9839 62.3267 54.3835L63.6765 59.7061C63.7379 59.9481 63.6669 60.2036 63.4896 60.3783Z" fill="white"/>
<path d="M129.823 29.6566C129.39 28.2994 128.809 27.0838 128.078 26.0099C127.362 24.9212 126.504 23.9964 125.505 23.2358C124.506 22.4602 123.365 21.8711 122.082 21.4684C120.814 21.0657 119.42 20.8643 117.898 20.8643C115.318 20.8643 112.991 21.5281 110.918 22.8555C108.845 24.1829 107.205 26.1293 105.996 28.6946C104.803 31.245 104.207 34.3697 104.207 38.0685C104.207 41.7823 104.811 44.9219 106.019 47.4872C107.227 50.0526 108.882 51.9989 110.985 53.3263C113.088 54.6538 115.482 55.3175 118.167 55.3175C120.658 55.3175 122.828 54.8104 124.677 53.7962C126.542 52.782 127.981 51.3501 128.995 49.5007C130.024 47.6364 130.539 45.4439 130.539 42.9233L132.328 43.2589H119.218V37.554H137.228V42.7667C137.228 46.6147 136.408 49.9556 134.767 52.7894C133.141 55.6083 130.889 57.7859 128.011 59.3221C125.147 60.8583 121.866 61.6264 118.167 61.6264C114.021 61.6264 110.381 60.6719 107.249 58.7628C104.132 56.8537 101.701 54.1467 99.956 50.6417C98.2109 47.1218 97.3384 42.9457 97.3384 38.1133C97.3384 34.4592 97.8455 31.1779 98.8597 28.2695C99.8739 25.3611 101.298 22.8928 103.133 20.8643C104.982 18.821 107.152 17.2624 109.643 16.1886C112.149 15.0998 114.886 14.5554 117.854 14.5554C120.33 14.5554 122.634 14.9208 124.767 15.6516C126.914 16.3825 128.824 17.419 130.494 18.7614C132.179 20.1037 133.574 21.6996 134.678 23.549C135.781 25.3835 136.527 27.4194 136.915 29.6566H129.823ZM145.467 61V26.6364H151.932V32.0952H152.29C152.916 30.2457 154.02 28.7915 155.601 27.7326C157.197 26.6587 159.002 26.1218 161.015 26.1218C161.433 26.1218 161.925 26.1367 162.492 26.1665C163.073 26.1964 163.528 26.2337 163.856 26.2784V32.6768C163.588 32.6023 163.111 32.5202 162.425 32.4308C161.739 32.3263 161.052 32.2741 160.366 32.2741C158.785 32.2741 157.376 32.6097 156.138 33.2809C154.915 33.9371 153.946 34.8544 153.23 36.0327C152.514 37.196 152.156 38.5234 152.156 40.0149V61H145.467ZM169.645 61V26.6364H176.335V61H169.645ZM173.023 21.3342C171.86 21.3342 170.861 20.9464 170.026 20.1708C169.205 19.3803 168.795 18.4407 168.795 17.3519C168.795 16.2482 169.205 15.3086 170.026 14.533C170.861 13.7425 171.86 13.3473 173.023 13.3473C174.187 13.3473 175.179 13.7425 175.999 14.533C176.834 15.3086 177.252 16.2482 177.252 17.3519C177.252 18.4407 176.834 19.3803 175.999 20.1708C175.179 20.9464 174.187 21.3342 173.023 21.3342ZM192.023 40.5966V61H185.334V26.6364H191.755V32.2294H192.18C192.97 30.4098 194.208 28.9482 195.893 27.8445C197.594 26.7408 199.734 26.1889 202.314 26.1889C204.656 26.1889 206.707 26.6811 208.467 27.6655C210.226 28.6349 211.591 30.0817 212.561 32.0057C213.53 33.9297 214.015 36.3086 214.015 39.1424V61H207.326V39.9478C207.326 37.457 206.677 35.5107 205.379 34.1087C204.082 32.6918 202.299 31.9833 200.032 31.9833C198.481 31.9833 197.101 32.3189 195.893 32.9901C194.7 33.6612 193.753 34.6456 193.052 35.9432C192.366 37.2259 192.023 38.777 192.023 40.5966ZM235.85 61.6712C233.076 61.6712 230.6 60.9627 228.422 59.5458C226.26 58.114 224.56 56.0781 223.322 53.4382C222.099 50.7834 221.487 47.5991 221.487 43.8853C221.487 40.1715 222.106 36.9947 223.344 34.3548C224.597 31.7148 226.312 29.6939 228.49 28.2919C230.667 26.8899 233.136 26.1889 235.895 26.1889C238.028 26.1889 239.743 26.5469 241.04 27.2628C242.353 27.9638 243.367 28.7841 244.083 29.7237C244.814 30.6634 245.381 31.4911 245.783 32.207H246.186V15.1818H252.875V61H246.343V55.6531H245.783C245.381 56.3839 244.799 57.2191 244.038 58.1587C243.293 59.0984 242.263 59.9187 240.951 60.6197C239.638 61.3207 237.938 61.6712 235.85 61.6712ZM237.327 55.9663C239.251 55.9663 240.876 55.4592 242.204 54.445C243.546 53.4158 244.56 51.9915 245.246 50.1719C245.947 48.3523 246.298 46.2344 246.298 43.8182C246.298 41.4318 245.955 39.3437 245.269 37.554C244.583 35.7642 243.576 34.3697 242.248 33.3704C240.921 32.3711 239.28 31.8714 237.327 31.8714C235.313 31.8714 233.635 32.3935 232.293 33.4375C230.951 34.4815 229.936 35.9059 229.25 37.7106C228.579 39.5153 228.244 41.5511 228.244 43.8182C228.244 46.1151 228.587 48.1808 229.273 50.0153C229.959 51.8498 230.973 53.304 232.315 54.3778C233.672 55.4368 235.343 55.9663 237.327 55.9663ZM287.949 27.218C287.711 25.1001 286.726 23.4595 284.996 22.2962C283.266 21.1179 281.088 20.5288 278.463 20.5288C276.584 20.5288 274.958 20.8271 273.586 21.4236C272.214 22.0053 271.148 22.8107 270.387 23.8398C269.641 24.854 269.268 26.0099 269.268 27.3075C269.268 28.3963 269.522 29.3359 270.029 30.1264C270.551 30.9169 271.23 31.5806 272.065 32.1175C272.915 32.6396 273.825 33.0795 274.794 33.4375C275.764 33.7805 276.696 34.0639 277.591 34.2876L282.065 35.451C283.527 35.8089 285.026 36.2937 286.562 36.9052C288.098 37.5167 289.523 38.3221 290.835 39.3214C292.148 40.3207 293.207 41.5586 294.012 43.0352C294.832 44.5117 295.243 46.2791 295.243 48.3374C295.243 50.9325 294.571 53.2369 293.229 55.2504C291.902 57.2638 289.97 58.8523 287.435 60.0156C284.914 61.179 281.864 61.7607 278.284 61.7607C274.854 61.7607 271.886 61.2163 269.38 60.1275C266.875 59.0387 264.913 57.495 263.496 55.4964C262.08 53.483 261.297 51.0966 261.147 48.3374H268.083C268.217 49.9929 268.754 51.3725 269.694 52.4762C270.648 53.565 271.864 54.3778 273.34 54.9148C274.832 55.4368 276.465 55.6978 278.24 55.6978C280.194 55.6978 281.931 55.392 283.452 54.7805C284.989 54.1541 286.197 53.2891 287.077 52.1854C287.957 51.0668 288.397 49.7617 288.397 48.2702C288.397 46.913 288.009 45.8018 287.233 44.9368C286.473 44.0717 285.436 43.3558 284.124 42.7891C282.826 42.2223 281.357 41.7227 279.716 41.2901L274.302 39.8136C270.633 38.8143 267.725 37.3452 265.577 35.4062C263.444 33.4673 262.378 30.902 262.378 27.7102C262.378 25.0703 263.094 22.766 264.526 20.7972C265.957 18.8285 267.896 17.2997 270.342 16.2109C272.788 15.1072 275.548 14.5554 278.62 14.5554C281.722 14.5554 284.459 15.0998 286.831 16.1886C289.217 17.2773 291.096 18.7763 292.468 20.6854C293.841 22.5795 294.556 24.7571 294.616 27.218H287.949ZM312.967 61.7607C310.789 61.7607 308.821 61.358 307.061 60.5526C305.301 59.7322 303.906 58.5465 302.877 56.9954C301.863 55.4442 301.356 53.5426 301.356 51.2905C301.356 49.3516 301.729 47.7557 302.474 46.5028C303.22 45.25 304.227 44.2582 305.495 43.5273C306.762 42.7965 308.179 42.2447 309.745 41.8718C311.311 41.4989 312.907 41.2156 314.533 41.0217C316.591 40.783 318.262 40.5891 319.544 40.44C320.827 40.2759 321.759 40.0149 322.341 39.657C322.922 39.299 323.213 38.7173 323.213 37.9119V37.7553C323.213 35.8015 322.661 34.2876 321.558 33.2138C320.469 32.1399 318.843 31.603 316.681 31.603C314.429 31.603 312.654 32.1026 311.356 33.1019C310.073 34.0863 309.186 35.1825 308.694 36.3906L302.407 34.9588C303.153 32.8707 304.242 31.1854 305.674 29.9027C307.12 28.6051 308.783 27.6655 310.663 27.0838C312.542 26.4872 314.518 26.1889 316.591 26.1889C317.963 26.1889 319.418 26.353 320.954 26.6811C322.505 26.9943 323.952 27.576 325.294 28.4261C326.651 29.2763 327.762 30.4918 328.627 32.0728C329.492 33.6388 329.925 35.6747 329.925 38.1804V61H323.392V56.3018H323.124C322.691 57.1669 322.043 58.017 321.177 58.8523C320.312 59.6875 319.201 60.381 317.844 60.9329C316.487 61.4847 314.861 61.7607 312.967 61.7607ZM314.421 56.3913C316.271 56.3913 317.851 56.0259 319.164 55.2951C320.491 54.5643 321.498 53.6097 322.184 52.4315C322.885 51.2383 323.236 49.9631 323.236 48.6058V44.1761C322.997 44.4148 322.535 44.6385 321.849 44.8473C321.177 45.0412 320.409 45.2127 319.544 45.3619C318.679 45.4961 317.837 45.6229 317.016 45.7422C316.196 45.8466 315.51 45.9361 314.958 46.0107C313.66 46.1747 312.475 46.4506 311.401 46.8384C310.342 47.2262 309.492 47.7855 308.85 48.5163C308.224 49.2322 307.911 50.1868 307.911 51.38C307.911 53.0355 308.522 54.2884 309.745 55.1385C310.968 55.9737 312.527 56.3913 314.421 56.3913ZM355.189 26.6364V32.0057H335.77V26.6364H355.189ZM341.094 61V22.6541C341.094 20.5064 341.564 18.7241 342.504 17.3072C343.443 15.8754 344.689 14.8089 346.24 14.108C347.791 13.392 349.476 13.0341 351.296 13.0341C352.638 13.0341 353.787 13.1459 354.741 13.3697C355.696 13.5785 356.404 13.7724 356.867 13.9513L355.301 19.3654C354.987 19.2759 354.585 19.1715 354.093 19.0522C353.6 18.918 353.004 18.8509 352.303 18.8509C350.677 18.8509 349.514 19.2535 348.813 20.0589C348.127 20.8643 347.784 22.0277 347.784 23.549V61H341.094ZM375.547 61.6935C372.162 61.6935 369.246 60.9702 366.8 59.5234C364.369 58.0618 362.49 56.011 361.162 53.3711C359.85 50.7163 359.193 47.6065 359.193 44.0419C359.193 40.522 359.85 37.4197 361.162 34.7351C362.49 32.0504 364.339 29.9549 366.71 28.4485C369.097 26.9421 371.886 26.1889 375.078 26.1889C377.017 26.1889 378.896 26.5096 380.715 27.1509C382.535 27.7923 384.168 28.799 385.615 30.1712C387.062 31.5433 388.203 33.3256 389.038 35.5181C389.873 37.6957 390.291 40.343 390.291 43.4602V45.8317H362.974V40.8203H383.736C383.736 39.0604 383.378 37.5018 382.662 36.1445C381.946 34.7724 380.939 33.6911 379.642 32.9006C378.359 32.1101 376.852 31.7148 375.122 31.7148C373.243 31.7148 371.602 32.1772 370.2 33.1019C368.813 34.0117 367.74 35.2049 366.979 36.6815C366.233 38.1431 365.86 39.7315 365.86 41.4467V45.3619C365.86 47.6587 366.263 49.6126 367.068 51.2234C367.889 52.8342 369.03 54.0646 370.491 54.9148C371.953 55.75 373.661 56.1676 375.615 56.1676C376.882 56.1676 378.038 55.9886 379.082 55.6307C380.126 55.2578 381.029 54.706 381.789 53.9751C382.55 53.2443 383.132 52.342 383.534 51.2681L389.866 52.4091C389.358 54.2734 388.449 55.9066 387.136 57.3086C385.839 58.6957 384.205 59.777 382.237 60.5526C380.283 61.3132 378.053 61.6935 375.547 61.6935Z" fill="black"/>
</svg>
